<svg width="512" height="512" xmlns="http://www.w3.org/2000/svg">

 <g>
  <title>background</title>
  <rect fill="none" id="canvas_background" height="402" width="582" y="-1" x="-1"/>
 </g>
 <g>
  <title>Layer 1</title>
  <path fill="#d61b64" id="svg_1" d="m165.4,173.1l27.8,-27.8c10.3,-10.3 10.3,-26.9 0,-37.2l-93,-93c-10.3,-10.2 -26.9,-10.2 -37.2,0.1l-45.2,45.2c-10.3,10.2 -13.3,25.9 -7.2,39.1c32.7,70.8 91.9,153.5 170.1,231.8s161,137.4 231.8,170.1c13.2,6.1 28.8,3.1 39.1,-7.2l45.2,-45.2c10.3,-10.3 10.3,-26.9 0,-37.2l-93,-93c-10.3,-10.3 -26.9,-10.3 -37.2,0l-27.8,27.8c-9.6,9.6 -25,10.3 -35.5,1.6c-24.5,-20.2 -49,-42.5 -73.1,-66.6s-46.2,-48.6 -66.5,-73c-8.6,-10.5 -8,-25.8 1.7,-35.5z" class="st0"/>
  <path fill="#e80b60" id="svg_2" d="m432.6,481.4c-70.8,-32.7 -153.5,-91.9 -231.8,-170.1s-137.5,-161.1 -170.2,-231.9c-6.1,-13.2 -3.1,-28.8 7.2,-39.1l-20,20c-10.3,10.3 -13.3,26 -7.2,39.2c32.7,70.8 91.8,153.5 170.1,231.8s161,137.4 231.8,170.1c13.2,6.1 28.8,3.1 39.1,-7.2l20,-20c-10.2,10.2 -25.8,13.3 -39,7.2z" class="st1"/>
  <path id="svg_3" d="m502.1,406.5l-93,-93c-13.2,-13.2 -34.6,-13.2 -47.8,0l-27.8,27.8c-6.9,6.9 -17.8,7.4 -25.4,1.1c-24.8,-20.5 -49.2,-42.8 -72.6,-66.1s-45.6,-47.8 -66.1,-72.6c-6.3,-7.6 -5.8,-18.5 1.1,-25.4l27.8,-27.8c13.2,-13.2 13.2,-34.6 0,-47.8l-93,-93c-13,-13 -34.4,-13 -47.6,0.2l-45.2,45.2c-12.5,12.5 -16,31.6 -8.7,47.5c34.5,74.6 95.4,157.7 171.7,234c76.2,76.2 159.3,137.2 234,171.7c5.5,2.6 11.5,3.8 17.4,3.8c11,0 22,-4.3 30.2,-12.5l45.2,-45.2c13,-13.3 13,-34.7 -0.2,-47.9zm-10.6,37.2l-13.3,13.3l-87.7,-87.7c-2.9,-2.9 -7.7,-2.9 -10.6,0c-2.9,2.9 -2.9,7.7 0,10.6l87.7,87.7l-21.3,21.3c-8.1,8.1 -20.5,10.4 -30.7,5.7c-73.1,-33.7 -154.6,-93.6 -229.6,-168.6s-134.8,-156.6 -168.6,-229.7c-4.7,-10.2 -2.4,-22.5 5.7,-30.7l21.3,-21.3l7.1,7.1c1.5,1.5 3.4,2.2 5.3,2.2s3.8,-0.7 5.3,-2.2c2.9,-2.9 2.9,-7.7 0,-10.6l-7.1,-7l13.3,-13.3c3.7,-3.7 8.5,-5.5 13.3,-5.5c4.8,0 9.6,1.8 13.3,5.5l93,93c3.5,3.5 5.5,8.3 5.5,13.3c0,5 -2,9.7 -5.5,13.3l-13.3,13.3l-87.7,-87.7c-2.9,-2.9 -7.7,-2.9 -10.6,0c-2.9,2.9 -2.9,7.7 0,10.6l87.7,87.7l-3.9,3.9c-12.4,12.4 -13.3,32 -2.1,45.6c20.8,25.2 43.4,49.9 67.1,73.6s48.4,46.2 73.6,67.1c13.6,11.2 33.1,10.3 45.6,-2.1l3.9,-3.9l7.1,7.1c1.5,1.5 3.4,2.2 5.3,2.2s3.8,-0.7 5.3,-2.2c2.9,-2.9 2.9,-7.7 0,-10.6l-7.1,-7.1l13.3,-13.3c3.5,-3.5 8.3,-5.5 13.3,-5.5c5,0 9.7,2 13.3,5.5l93,93c7.1,7.1 7.1,19.1 -0.2,26.4z"/>
  <path id="svg_4" d="m265.3,111c32.8,8 62.8,24.9 86.8,48.9s40.9,54 48.9,86.8c0.8,3.4 3.9,5.7 7.3,5.7c0.6,0 1.2,-0.1 1.8,-0.2c4,-1 6.5,-5 5.5,-9.1c-8.6,-35.5 -26.9,-67.9 -52.9,-93.9c-25.9,-25.9 -58.4,-44.2 -93.9,-52.9c-4,-1 -8.1,1.5 -9.1,5.5c-0.9,4.1 1.6,8.2 5.6,9.2z"/>
  <path id="svg_5" d="m253.8,157.9c24.4,5.9 46.7,18.4 64.3,36c17.6,17.6 30.1,39.8 36,64.3c0.8,3.4 3.9,5.7 7.3,5.7c0.6,0 1.2,-0.1 1.8,-0.2c4,-1 6.5,-5 5.5,-9.1c-6.6,-27.1 -20.4,-51.8 -40,-71.3c-19.6,-19.6 -44.2,-33.4 -71.3,-40c-4,-1 -8.1,1.5 -9.1,5.5c-0.9,4 1.5,8.1 5.5,9.1z"/>
  <path id="svg_6" d="m177.5,470.2c-32.8,-8 -62.8,-24.9 -86.8,-48.9s-40.9,-54 -48.9,-86.8c-1,-4 -5,-6.5 -9.1,-5.5c-4,1 -6.5,5 -5.5,9.1c8.6,35.5 26.9,67.9 52.8,93.9c25.9,25.9 58.4,44.2 93.9,52.9c0.6,0.1 1.2,0.2 1.8,0.2c3.4,0 6.4,-2.3 7.3,-5.7c1,-4.1 -1.5,-8.2 -5.5,-9.2z"/>
  <path id="svg_7" d="m188.9,423.4c-24.4,-5.9 -46.7,-18.4 -64.3,-36c-17.6,-17.6 -30.1,-39.8 -36,-64.3c-1,-4 -5,-6.5 -9.1,-5.5c-4,1 -6.5,5 -5.5,9.1c6.6,27.1 20.4,51.8 40,71.3c19.6,19.6 44.2,33.4 71.3,40c0.6,0.1 1.2,0.2 1.8,0.2c3.4,0 6.4,-2.3 7.3,-5.7c1,-4.1 -1.4,-8.2 -5.5,-9.1z"/>
 </g>
</svg>