<svg width="512" height="394.4" xmlns="http://www.w3.org/2000/svg">

 <g>
  <title>background</title>
  <rect fill="none" id="canvas_background" height="402" width="582" y="-1" x="-1"/>
 </g>
 <g>
  <title>Layer 1</title>
  <polygon fill="#f2f2f2" id="svg_2" points="445.2,100.3 445.2,385.2 66.8,385.2 66.8,100.3 256,238.2  " class="st0"/>
  <polygon fill="#f2f2f2" id="svg_3" points="466.1,9.2 256,162.3 45.9,9.2 256,9.2  " class="st0"/>
  <path fill="#d61b64" id="svg_5" d="m66.8,100.3l0,284.9l-34.3,0c-12.8,0 -23.3,-10.4 -23.3,-23.3l0,-303.6l57.6,42z" class="st1"/>
  <path fill="#d61b64" id="svg_6" d="m502.8,32.5l0,25.9l-57.6,42l-189.2,137.8l-189.2,-137.9l-57.6,-42l0,-25.8c0,-12.8 10.4,-23.3 23.3,-23.3l13.5,0l210,153.1l210.1,-153.1l13.5,0c12.8,0 23.2,10.4 23.2,23.3z" class="st1"/>
  <path fill="#d61b64" id="svg_7" d="m502.8,58.3l0,303.7c0,12.8 -10.4,23.3 -23.3,23.3l-34.3,0l0,-285l57.6,-42z" class="st1"/>
  <path id="svg_8" d="m479.5,0l-447,0c-17.9,0 -32.5,14.6 -32.5,32.5l0,329.5c0,17.9 14.6,32.5 32.5,32.5l447.1,0c17.9,0 32.5,-14.6 32.5,-32.5l0,-329.5c-0.1,-17.9 -14.7,-32.5 -32.6,-32.5zm-41.6,18.4l-181.9,132.5l-181.9,-132.5l363.8,0zm-419.5,343.6l0,-285.6l39.2,28.6l0,271l-25.1,0c-7.8,0 -14.1,-6.3 -14.1,-14zm417.7,14l-360.2,0l0,-257.6l174.6,127.3c1.6,1.2 3.5,1.8 5.4,1.8c1.9,0 3.8,-0.6 5.4,-1.8l174.6,-127.3l0,257.6l0.2,0zm57.5,-14c0,7.8 -6.3,14.1 -14.1,14.1l-25.1,0l0,-271.1l39.2,-28.6l0,285.6zm0,-308.3l-237.6,173.2l-237.6,-173.2l0,-21.2c0,-7.8 6.3,-14.1 14.1,-14.1l10.5,0l207.6,151.3c1.6,1.2 3.5,1.8 5.4,1.8c1.9,0 3.8,-0.6 5.4,-1.8l207.7,-151.3l10.5,0c7.8,0 14.1,6.3 14.1,14.1l-0.1,21.2l0,0z"/>
 </g>
</svg>